<svg width="20" height="20" viewBox="0 0 20 20" fill="none" xmlns="http://www.w3.org/2000/svg">
<path id="Vector" d="M9.29488 10.7051H0.705125C0.505347 10.7051 0.337875 10.6369 0.202709 10.5006C0.0675697 10.3642 0 10.1952 0 9.99362C0 9.79204 0.0675697 9.62518 0.202709 9.49304C0.337875 9.36093 0.505347 9.29488 0.705125 9.29488H9.29488V0.705124C9.29488 0.505346 9.36306 0.337875 9.49942 0.202708C9.63581 0.067569 9.80479 0 10.0064 0C10.208 0 10.3748 0.067569 10.507 0.202708C10.6391 0.337875 10.7051 0.505346 10.7051 0.705124V9.29488H19.2949C19.4947 9.29488 19.6621 9.36306 19.7973 9.49942C19.9324 9.63581 20 9.80479 20 10.0064C20 10.208 19.9324 10.3748 19.7973 10.507C19.6621 10.6391 19.4947 10.7051 19.2949 10.7051H10.7051V19.2949C10.7051 19.4947 10.6369 19.6621 10.5006 19.7973C10.3642 19.9324 10.1952 20 9.99362 20C9.79204 20 9.62518 19.9324 9.49304 19.7973C9.36093 19.6621 9.29488 19.4947 9.29488 19.2949V10.7051Z" fill="black"/>
</svg>
